<svg xmlns="http://www.w3.org/2000/svg" width="12.177" height="12.177" viewBox="0 0 12.177 12.177">
  <path id="Tracé_16" data-name="Tracé 16" d="M9.588,5.4V4m0,1.4a1.4,1.4,0,0,0,0,2.794m0-2.794a1.4,1.4,0,0,1,0,2.794M5.4,13.78a1.4,1.4,0,1,0,0-2.794m0,2.794a1.4,1.4,0,1,1,0-2.794m0,2.794v1.4m0-4.191V4M9.588,8.191v6.986m4.191-1.4a1.4,1.4,0,0,0,0-2.794m0,2.794a1.4,1.4,0,0,1,0-2.794m0,2.794v1.4m0-4.191V4" transform="translate(-3.5 -3.5)" fill="none" stroke="#fff" stroke-linecap="round" stroke-linejoin="round" stroke-width="1"/>
</svg>
